<?xml version="1.0" encoding="iso-8859-1"?>
<!-- Generator: Adobe Illustrator 16.0.0, SVG Export Plug-In . SVG Version: 6.00 Build 0)  -->
<!DOCTYPE svg PUBLIC "-//W3C//DTD SVG 1.1//EN" "http://www.w3.org/Graphics/SVG/1.1/DTD/svg11.dtd">
<svg xmlns="http://www.w3.org/2000/svg" xmlns:xlink="http://www.w3.org/1999/xlink" version="1.1" id="Capa_1" x="0px" y="0px" width="512px" height="512px" viewBox="0 0 600.033 600.033" style="enable-background:new 0 0 600.033 600.033;" xml:space="preserve">
<g>
	<g>
		<path d="M551.512,56.825l-8.305-8.304C527.57,32.885,509.316,20.768,488.95,12.51c-19.648-7.968-40.398-12.008-61.673-12.008    c-21.273,0-42.024,4.041-61.673,12.008c-20.366,8.258-38.62,20.375-54.258,36.012L48.52,311.35    c-15.637,15.637-27.753,33.891-36.012,54.256C4.54,385.256,0.5,406.006,0.5,427.279s4.04,42.023,12.008,61.672    c8.258,20.365,20.375,38.621,36.012,54.258l8.304,8.303c15.637,15.637,33.892,27.754,54.258,36.012    c19.649,7.969,40.398,12.008,61.673,12.008c21.274,0,42.024-4.039,61.673-12.008c20.365-8.258,38.62-20.375,54.257-36.012    l262.828-262.827c15.638-15.637,27.753-33.892,36.012-54.257c7.969-19.649,12.009-40.399,12.009-61.672    c0-21.274-4.041-42.024-12.009-61.673C579.265,90.717,567.148,72.462,551.512,56.825z M258.392,521.221    c-23.648,23.648-54.643,35.471-85.638,35.471s-61.989-11.822-85.638-35.471l-8.304-8.305c-47.296-47.297-47.296-123.979,0-171.275    L195.08,225.374l179.58,179.579L258.392,521.221z M521.22,258.393L404.951,374.66L225.373,195.081L341.64,78.814    c23.648-23.648,54.643-35.472,85.638-35.472s61.989,11.824,85.638,35.472l8.304,8.304    C568.516,134.414,568.516,211.097,521.22,258.393z" fill="#FFFFFF"/>
		<path d="M172.754,600.031c-21.341,0-42.154-4.053-61.861-12.045c-20.426-8.282-38.737-20.435-54.423-36.121l-8.304-8.303    c-15.685-15.684-27.837-33.994-36.122-54.424C4.052,469.431,0,448.618,0,427.279c0-21.338,4.052-42.151,12.044-61.861    c8.284-20.428,20.437-38.738,36.122-54.422L310.993,48.168c15.687-15.686,33.997-27.839,54.424-36.122    c19.709-7.992,40.522-12.044,61.86-12.044c21.341,0,42.153,4.052,61.86,12.044c20.427,8.283,38.737,20.436,54.423,36.121    l8.305,8.304c15.684,15.684,27.837,33.995,36.122,54.422c7.993,19.71,12.046,40.524,12.046,61.861    c0,21.339-4.053,42.152-12.046,61.86c-8.284,20.429-20.438,38.74-36.121,54.423L289.039,551.865    c-15.687,15.687-33.997,27.839-54.423,36.122C214.909,595.979,194.096,600.031,172.754,600.031z M427.277,1.002    c-21.209,0-41.896,4.028-61.485,11.971c-20.301,8.232-38.5,20.312-54.092,35.902L48.873,311.703    c-15.589,15.589-27.668,33.787-35.902,54.09C5.028,385.384,1,406.07,1,427.279s4.028,41.896,11.971,61.484    c8.233,20.304,20.312,38.503,35.902,54.092l8.304,8.303c15.591,15.591,33.791,27.67,54.092,35.902    c19.586,7.943,40.273,11.971,61.485,11.971s41.898-4.027,61.485-11.971c20.301-8.232,38.5-20.312,54.092-35.902l262.828-262.827    c15.589-15.588,27.668-33.787,35.902-54.092c7.943-19.588,11.972-40.274,11.972-61.484c0-21.208-4.028-41.895-11.972-61.485    c-8.235-20.303-20.314-38.502-35.903-54.091l-8.305-8.304c-15.591-15.59-33.79-27.669-54.091-35.901    C469.175,5.03,448.488,1.002,427.277,1.002z M172.754,557.191c-32.484,0-63.023-12.649-85.991-35.617l-8.304-8.305    c-47.415-47.416-47.415-124.566,0-171.982l116.621-116.62l180.287,180.286L258.745,521.574    C235.777,544.542,205.238,557.191,172.754,557.191z M195.08,226.081L79.166,341.994c-47.025,47.026-47.025,123.542,0,170.568    l8.304,8.305c22.779,22.779,53.067,35.324,85.284,35.324s62.505-12.545,85.284-35.324l115.914-115.914L195.08,226.081z     M404.951,375.367L224.666,195.081L341.286,78.46c22.969-22.969,53.508-35.619,85.991-35.619S490.3,55.491,513.269,78.46    l8.304,8.304c22.97,22.969,35.619,53.508,35.619,85.991c0,32.483-12.649,63.022-35.618,85.991L404.951,375.367z M226.08,195.081    l178.872,178.872L520.866,258.04c22.78-22.78,35.325-53.068,35.325-85.284c0-32.216-12.546-62.504-35.326-85.284l-8.304-8.304    c-22.78-22.78-53.068-35.326-85.284-35.326s-62.504,12.545-85.284,35.326L226.08,195.081z" fill="#FFFFFF"/>
	</g>
</g>
<g>
</g>
<g>
</g>
<g>
</g>
<g>
</g>
<g>
</g>
<g>
</g>
<g>
</g>
<g>
</g>
<g>
</g>
<g>
</g>
<g>
</g>
<g>
</g>
<g>
</g>
<g>
</g>
<g>
</g>
</svg>
